<svg width="2139" height="475" viewBox="0 0 2139 475" fill="none" xmlns="http://www.w3.org/2000/svg">
  <path d="M0.331055 475V237.49L237.896 475H0.331055Z" fill="#66CBFF"/>
  <path opacity="0.63" d="M237.896 237.49V474.981L0.331055 237.49H237.896Z" fill="#99E4FB"/>
  <path opacity="0.25" d="M237.896 237.49H0.331055L237.896 0V237.49Z" fill="#66CBFF"/>
  <path d="M237.896 237.49H0.311523L237.896 0V237.49Z" fill="#99E4FB"/>
  <path d="M237.896 237.49H475.461L237.896 474.981V237.49Z" fill="#66CBFF"/>
  <path opacity="0.59" d="M475.461 474.981H237.896L475.461 237.49V474.981Z" fill="#38B4E4"/>
  <path d="M237.896 0H475.461L237.896 237.49V0Z" fill="#00538B"/>
  <path opacity="0.63" d="M475.461 237.49H237.896L475.461 0V237.49Z" fill="#99E4FB"/>
  <path d="M713.045 237.49V0L950.61 237.49H713.045Z" fill="#00538B"/>
  <path d="M950.61 0V237.49L713.045 0H950.61Z" fill="#99E4FB"/>
  <path d="M713.045 237.49H950.61L713.045 475V237.49Z" fill="#66CBFF"/>
  <path opacity="0.4" d="M950.61 475H713.045L950.61 237.49V475Z" fill="#99E4FB"/>
  <path opacity="0.59" d="M713.046 237.49H475.461L713.046 0V237.49Z" fill="#66CBFF"/>
  <path opacity="0.25" d="M475.461 0H713.046L475.461 237.49V0Z" fill="#38B4E4"/>
  <path d="M475.461 475V237.49L713.046 475H475.461Z" fill="#00538B"/>
  <path d="M713.046 237.49V474.981L475.461 237.49H713.046Z" fill="#99E4FB"/>
  <path opacity="0.7" d="M2138.48 237.49H1900.91L2138.48 0V237.49Z" fill="#66CBFF"/>
  <path d="M1900.89 0H2138.48L1900.89 237.49V0Z" fill="#38B4E4"/>
  <path opacity="0.7" d="M1900.89 475V237.49L2138.48 475H1900.89Z" fill="#00538B"/>
  <path d="M2138.48 237.49V474.981L1900.89 237.49H2138.48Z" fill="#99E4FB"/>
  <path opacity="0.7" d="M1900.89 0V237.49L1663.33 0H1900.89Z" fill="#66CBFF"/>
  <path d="M1663.33 237.49V0L1900.89 237.49H1663.33Z" fill="#99E4FB"/>
  <path d="M1663.33 237.49H1900.89L1663.33 475V237.49Z" fill="#66CBFF"/>
  <path d="M1900.91 475H1663.33L1900.91 237.49V475Z" fill="#99E4FB"/>
  <path d="M1663.32 237.49H1425.76L1663.32 0V237.49Z" fill="#66CBFF"/>
  <path opacity="0.14" d="M1425.76 0H1663.32L1425.76 237.49V0Z" fill="#38B4E4"/>
  <path d="M1663.32 475H1425.76L1663.32 237.49V475Z" fill="#00538B"/>
  <path opacity="0.56" d="M1425.76 237.49H1663.32L1425.76 475V237.49Z" fill="#99E4FB"/>
  <path d="M950.61 237.49H1188.18L950.61 475V237.49Z" fill="#00538B"/>
  <path d="M1188.18 475H950.61L1188.18 237.49V475Z" fill="#99E4FB"/>
  <path d="M1188.18 237.49H950.61L1188.18 0V237.49Z" fill="#66CBFF"/>
  <path opacity="0.56" d="M950.61 0H1188.18L950.61 237.49V0Z" fill="#99E4FB"/>
  <path d="M1188.18 237.49H1425.76L1188.18 475V237.49Z" fill="#66CBFF"/>
  <path d="M1425.76 475H1188.18L1425.76 237.49V475Z" fill="#38B4E4"/>
  <path opacity="0.25" d="M1425.76 0V237.49L1188.18 0H1425.76Z" fill="#00538B"/>
  <path d="M1188.18 237.49V0L1425.76 237.49H1188.18Z" fill="#99E4FB"/>
</svg>
